<?xml version="1.0" encoding="utf-8"?>
<!-- Generator: Adobe Illustrator 16.0.0, SVG Export Plug-In . SVG Version: 6.00 Build 0)  -->
<!DOCTYPE svg PUBLIC "-//W3C//DTD SVG 1.1//EN" "http://www.w3.org/Graphics/SVG/1.1/DTD/svg11.dtd">
<svg version="1.1" xmlns="http://www.w3.org/2000/svg" xmlns:xlink="http://www.w3.org/1999/xlink" x="0px" y="0px" width="500px"
	 height="500px" viewBox="0 0 500 500" enable-background="new 0 0 500 500" xml:space="preserve">
<g id="Layer_1">
</g>
<g id="Layer_2">
	<path fill="#FFE2A1" stroke="#C08B4B" stroke-width="7" stroke-miterlimit="10" d="M52.173,334.214
		c-12.149-23.698-19.063-50.94-19.063-79.919c0-91.507,69.274-158.2,153.988-165.689
		c123.797-10.945,191.733,164.049,191.733,255.558"/>
	<path fill="#FFE2A1" stroke="#C08B4B" stroke-width="7" stroke-miterlimit="10" d="M198.353,352.117
		c-18.941-27.416-30.126-61.234-30.125-97.82c0-91.508,69.957-165.69,156.253-165.69c86.298,0,156.253,74.182,156.253,165.69
		c0,29.422-7.232,57.054-19.915,81.002"/>
</g>
<g id="Layer_3">
	<path fill="#FFE2A1" stroke="#C08B4B" stroke-width="7" stroke-miterlimit="10" d="M50.422,332.872
		c0,0,188.184,43.11,412.427,1.079"/>
</g>
<g id="Layer_4">
	<path fill="#FFE2A1" d="M201.894,164.491C189.256,159.368,157.148,241,157.148,241s-3.757,61.482-2.732,64.558
		c1.024,3.072,26.301,33.813,28.009,34.155c1.708,0.342,56.017-24.934,56.358-23.227c0.341,1.709-3.073-114.084-5.465-114.767
		C230.927,201.036,214.532,169.615,201.894,164.491z"/>
</g>
<g id="Layer_5">
	<path fill="#502E15" d="M381.333,170.385c0,6.183-3.146,8.225-10.969,8.225s-13.255-4.324-13.255-10.507
		c0-6.183,4.327-12.741,13.255-11.883C378.151,156.967,381.333,164.202,381.333,170.385z"/>
</g>
<g id="Layer_6">
	<path fill="none" stroke="#140F0C" stroke-miterlimit="10" d="M375.753,138.19c0.118-1.292-0.946-1.195-2.338-0.716
		c-3.361,1.16-3.537,6.094-2.818,8.83c0.76,2.895,2.507,4.827,2.778,7.926c0.336,3.838-1.032,9.113-4.111,11.627"/>
	<path fill="none" stroke="#140F0C" stroke-miterlimit="10" d="M377.803,170.298c-0.518,0.325-0.243,0.911-0.973,0.646
		c-0.763-4.098,3.16-3.87,5.505-3.104c1.554,0.509,3.476,1.886,5.119,1.359c1.597-0.512,5.165-4.876,5.719-6.757"/>
	<path fill="none" stroke="#140F0C" stroke-miterlimit="10" d="M364.14,142.631c0.216,1.582-0.586,4.61,0.128,6.445
		c0.719,1.852,2.868,3.004,3.567,5.174c1.204,3.727-0.19,7.807,0.062,11.607"/>
</g>
</svg>
