<?xml version="1.0" encoding="utf-8"?>
<!-- Generator: Adobe Illustrator 16.0.0, SVG Export Plug-In . SVG Version: 6.00 Build 0)  -->
<!DOCTYPE svg PUBLIC "-//W3C//DTD SVG 1.1//EN" "http://www.w3.org/Graphics/SVG/1.1/DTD/svg11.dtd">
<svg version="1.1" xmlns="http://www.w3.org/2000/svg" xmlns:xlink="http://www.w3.org/1999/xlink" x="0px" y="0px" width="500px"
	 height="500px" viewBox="0 0 500 500" enable-background="new 0 0 500 500" xml:space="preserve">
<g id="Layer_6">
	<path fill="#BEA22F" stroke="#000000" stroke-width="5" stroke-miterlimit="10" d="M329.972,403.02
		c51.483-21.182,69.415-14.467,93.986-3.687c-4.288-30.704-37.937-51.396-37.937-51.396S319.884,399.922,329.972,403.02z"/>
</g>
<g id="Layer_1">
	<path fill="#FFD93A" stroke="#000000" stroke-width="5" stroke-miterlimit="10" d="M37.275,194.918
		c0,0,423.507,87.511,425.827,88.074c0.929,0.227,3.363,17.392,5.607,38.459c0,0-22.592,2.858-19.859,25.857
		c2.734,23,23.792,21.231,23.792,21.231c0.826,15.303,0.806,27.298-0.838,30.007c-1.146,1.889-20.997,3.736-51.535,5.368
		c0,0-1.964-38.825-41.026-34.659c-39.06,4.167-39.312,37.807-39.312,37.807c-122.326,3.585-286.244,4.223-291.098-2.515
		C41.114,393.835,37.275,194.918,37.275,194.918z"/>
</g>
<g id="Layer_2">
	<path fill="#FFD93A" stroke="#000000" stroke-width="5" stroke-miterlimit="10" d="M37.275,194.918
		C35.013,186.018,160.153,87.27,172,84c7.403-2.042,110.616,61.24,198.098,125.838c0,0-0.334,19.483,13.977,31.99
		c14.311,12.506,37.542,6.641,37.542,6.641c25.504,19.517,41.958,32.951,41.486,34.523
		C461.133,289.597,39.539,203.819,37.275,194.918z"/>
</g>
<g id="Layer_5">
	
		<ellipse transform="matrix(0.9965 -0.0838 0.0838 0.9965 -19.6841 21.6356)" fill="#FEE781" stroke="#000000" stroke-width="4" stroke-miterlimit="10" cx="248.035" cy="245.434" rx="33.453" ry="28.639"/>
	<circle fill="#FEE781" stroke="#000000" stroke-width="4" stroke-miterlimit="10" cx="117.34" cy="340.839" r="38.877"/>
	<circle fill="#FEE781" stroke="#000000" stroke-width="4" stroke-miterlimit="10" cx="412.315" cy="317.185" r="25.289"/>
	<circle fill="#FEE781" stroke="#000000" stroke-width="4" stroke-miterlimit="10" cx="223.959" cy="358.394" r="25.29"/>
	<path fill="#FEE781" stroke="#000000" stroke-width="4" stroke-miterlimit="10" d="M357.419,314.442
		c1.771,21.064-13.871,39.58-34.94,41.351c-21.069,1.771-39.581-13.874-41.352-34.939c-1.771-21.07,13.871-39.583,34.939-41.354
		C337.136,277.729,355.648,293.371,357.419,314.442z"/>
	<circle fill="#FEE781" stroke="#000000" stroke-width="4" stroke-miterlimit="10" cx="76.429" cy="252.458" r="21.266"/>
</g>
<g id="Layer_4">
	<path fill="#9A822F" d="M137.146,307.395c0,0-3.002,34.702-38.998,67.252c-4.201-1.161-12.386-11.128-12.386-11.128L78.6,344.096
		l3.821-20.349l9.809-12.577l13.714-8.388l19.163-0.036L137.146,307.395z"/>
	<path fill="#9A822F" d="M238.273,338.133c0,0-2.017,23.309-26.194,45.171c-2.82-0.778-8.319-7.473-8.319-7.473l-4.812-13.046
		l2.566-13.668l6.588-8.448l9.212-5.633l12.871-0.024L238.273,338.133z"/>
	<path fill="#9A822F" d="M426.63,296.927c0,0-2.017,23.307-26.193,45.171c-2.821-0.779-8.319-7.475-8.319-7.475l-4.812-13.046
		l2.565-13.668l6.59-8.446l9.211-5.635l12.871-0.024L426.63,296.927z"/>
	<path fill="#9A822F" d="M86.083,235.426c0,0-1.611,18.617-20.921,36.08c-2.253-0.624-6.646-5.971-6.646-5.971l-3.842-10.421
		l2.049-10.915l5.262-6.749l7.357-4.499l10.28-0.021L86.083,235.426z"/>
	<path fill="#9A822F" d="M340.445,284.262c0,0-3.027,34.988-39.322,67.81c-4.232-1.172-12.484-11.221-12.484-11.221l-7.225-19.584
		l3.854-20.518l9.888-12.682l13.827-8.456l19.321-0.036L340.445,284.262z"/>
	<path fill="#9A822F" d="M262.779,221.044c0,0-2.658,24.883-31.753,48.465c-3.359-0.803-9.85-7.885-9.85-7.885l-5.605-13.864
		l3.212-14.605l7.953-9.082l11.057-6.107l15.366-0.165L262.779,221.044z"/>
</g>
<g id="Layer_3">
	
		<ellipse transform="matrix(0.9965 -0.0838 0.0838 0.9965 -19.6841 21.6356)" fill="none" stroke="#000000" stroke-width="4" stroke-miterlimit="10" cx="248.035" cy="245.434" rx="33.453" ry="28.639"/>
	<circle fill="none" stroke="#000000" stroke-width="4" stroke-miterlimit="10" cx="117.34" cy="340.839" r="38.877"/>
	<circle fill="none" stroke="#000000" stroke-width="4" stroke-miterlimit="10" cx="412.315" cy="317.185" r="25.289"/>
	<circle fill="none" stroke="#000000" stroke-width="4" stroke-miterlimit="10" cx="223.959" cy="358.394" r="25.29"/>
	<path fill="none" stroke="#000000" stroke-width="4" stroke-miterlimit="10" d="M357.419,314.442
		c1.771,21.064-13.871,39.58-34.94,41.351c-21.069,1.771-39.581-13.874-41.352-34.939c-1.771-21.07,13.871-39.583,34.939-41.354
		C337.136,277.729,355.648,293.371,357.419,314.442z"/>
	<circle fill="none" stroke="#000000" stroke-width="4" stroke-miterlimit="10" cx="76.429" cy="252.458" r="21.266"/>
	
		<ellipse transform="matrix(0.9965 -0.0837 0.0837 0.9965 -10.193 15.534)" fill="#FEE781" stroke="#000000" stroke-width="4" stroke-miterlimit="10" cx="180.068" cy="129.267" rx="33.482" ry="24.028"/>
	<path fill="#9A822F" d="M197.771,108.137c0,0-3.285,21.568-34.884,42.473c-3.586-0.635-10.42-6.646-10.42-6.646l-5.763-11.894
		l3.697-12.688l8.686-7.995l11.958-5.477l16.472-0.411L197.771,108.137z"/>
	
		<ellipse transform="matrix(0.9965 -0.0837 0.0837 0.9965 -10.193 15.534)" fill="none" stroke="#000000" stroke-width="4" stroke-miterlimit="10" cx="180.068" cy="129.267" rx="33.482" ry="24.028"/>
	
		<ellipse transform="matrix(0.9965 -0.0838 0.0838 0.9965 -15.5713 14.4137)" fill="#FEE781" stroke="#000000" stroke-width="4" stroke-miterlimit="10" cx="164.013" cy="192.803" rx="24.256" ry="17.408"/>
	<path fill="#9A822F" d="M176.839,177.495c0,0-2.38,15.625-25.272,30.771c-2.599-0.459-7.549-4.814-7.549-4.814l-4.176-8.616
		l2.679-9.193l6.292-5.792l8.664-3.967l11.933-0.299L176.839,177.495z"/>
	
		<ellipse transform="matrix(0.9965 -0.0838 0.0838 0.9965 -15.5713 14.4137)" fill="none" stroke="#000000" stroke-width="4" stroke-miterlimit="10" cx="164.013" cy="192.803" rx="24.256" ry="17.408"/>
	
		<ellipse transform="matrix(0.9965 -0.0838 0.0838 0.9965 -14.7575 24.7917)" fill="#FEE781" stroke="#000000" stroke-width="4" stroke-miterlimit="10" cx="288.095" cy="188.279" rx="18.046" ry="12.952"/>
	<path fill="#9A822F" d="M297.638,176.89c0,0-1.772,11.625-18.804,22.894c-1.933-0.343-5.617-3.583-5.617-3.583l-3.104-6.41
		l1.991-6.84l4.682-4.308l6.445-2.953l8.879-0.222L297.638,176.89z"/>
	
		<ellipse transform="matrix(0.9965 -0.0838 0.0838 0.9965 -14.7575 24.7917)" fill="none" stroke="#000000" stroke-width="4" stroke-miterlimit="10" cx="288.095" cy="188.279" rx="18.046" ry="12.952"/>
</g>
</svg>
