<?xml version="1.0" encoding="utf-8"?>
<!-- Generator: Adobe Illustrator 16.0.0, SVG Export Plug-In . SVG Version: 6.00 Build 0)  -->
<!DOCTYPE svg PUBLIC "-//W3C//DTD SVG 1.1//EN" "http://www.w3.org/Graphics/SVG/1.1/DTD/svg11.dtd">
<svg version="1.1" xmlns="http://www.w3.org/2000/svg" xmlns:xlink="http://www.w3.org/1999/xlink" x="0px" y="0px" width="500px"
	 height="500px" viewBox="0 0 500 500" enable-background="new 0 0 500 500" xml:space="preserve">
<g id="Layer_2">
	<path fill="#FFFFFF" stroke="#000000" stroke-width="7" stroke-miterlimit="10" d="M135.314,272.517
		c2.513-3.769-6.742,47.753,0,82.022s185.955,39.888,216.292,0c3.933-23.033,0-92.696,0-92.696S133.067,275.887,135.314,272.517z"/>
</g>
<g id="Layer_5">
	<path d="M227.667,329.514c0,5.608-4.546,10.154-10.154,10.154l0,0c-5.608,0-10.155-4.546-10.155-10.154v-45.213
		c0-5.607,4.546-10.154,10.155-10.154l0,0c5.608,0,10.154,4.547,10.154,10.154V329.514z"/>
	<path d="M277.333,329.514c0,5.608-4.546,10.154-10.154,10.154l0,0c-5.608,0-10.155-4.546-10.155-10.154v-45.213
		c0-5.607,4.547-10.154,10.155-10.154l0,0c5.608,0,10.154,4.547,10.154,10.154V329.514z"/>
</g>
<g id="Layer_4">
	<path fill="#62BC46" d="M230.616,90.494c127.237-0.562,201.299,119.101,197.976,147.753s-34.658,55.619-191.329,56.181
		c-156.671,0.561-186.107-16.855-191.329-50.001S103.379,91.055,230.616,90.494z"/>
</g>
<g id="Layer_3">
	<path fill="#FFFFFF" d="M133.805,118.346c0,0,6.624,100.392,107.301,92.465c100.678-7.927,80.787-98.063,80.787-98.063
		C267.653,81.653,175.856,87.575,133.805,118.346z"/>
	<path fill="#FFFFFF" d="M61.766,192.466c0,0,66.901-12.466,89.901,34.868s-22.66,62.935-22.66,62.935l-12.49-1.559l-14.249-2.376
		L88,282.997l-14.993-5.278l-9.03-4.852l-10.624-9.71L47.103,250l-1.471-13l2.405-12.235l5.177-14.871L61.766,192.466z"/>
	<path fill="#FFFFFF" d="M401.974,180.104c0,0-62.641-2.437-71.641,44.896c-8.31,38.704,25.333,61,26.421,60.794
		s21.396-4.935,21.396-4.935l17.995-6.291l18.146-10.701L425.332,250l3.26-11.753l-0.899-9.506l-6.468-17.483L412,194.667
		L401.974,180.104z"/>
</g>
<g id="Layer_6">
	<path opacity="0.1" d="M243.079,90.492c0,0-120.579,129.545-63.579,199.777c2.789,3.468-28.05,1.957-28.05,1.957L105,285.795
		l-41.022-12.928L45.632,252.5v-27l9.293-19.534l20.004-33.922l14.57-20.341l23.606-19.569l20.698-13.787l28.296-14.826
		l27.627-8.494l32.772-4.535H243.079z"/>
	<path d="M213.5,294.44"/>
	<path opacity="0.2" d="M197,294c0,0-2.762,67.877,2.369,86.188c0,0-23.115-3.576-21.077-3.188S151.101,369,151.101,369
		l-15.786-14.461l-2.51-37.039v-26.833l23.712,1.886L197,294z"/>
</g>
<g id="Layer_1">
	<path fill="none" stroke="#000000" stroke-width="6" stroke-miterlimit="10" d="M230.616,90.494
		c127.237-0.562,201.299,119.101,197.976,147.753s-34.658,55.619-191.329,56.181c-156.671,0.561-186.107-16.855-191.329-50.001
		S103.379,91.055,230.616,90.494z"/>
</g>
</svg>
