<?xml version="1.0" encoding="utf-8"?>
<!-- Generator: Adobe Illustrator 16.0.0, SVG Export Plug-In . SVG Version: 6.00 Build 0)  -->
<!DOCTYPE svg PUBLIC "-//W3C//DTD SVG 1.1//EN" "http://www.w3.org/Graphics/SVG/1.1/DTD/svg11.dtd">
<svg version="1.1" xmlns="http://www.w3.org/2000/svg" xmlns:xlink="http://www.w3.org/1999/xlink" x="0px" y="0px" width="500px"
	 height="500px" viewBox="0 0 500 500" enable-background="new 0 0 500 500" xml:space="preserve">
<g id="Layer_3">
	
		<ellipse fill="#ED1F24" stroke="#000000" stroke-width="12" stroke-miterlimit="10" cx="132.222" cy="175.661" rx="34.249" ry="39.077"/>
	
		<ellipse fill="#ED1F24" stroke="#000000" stroke-width="12" stroke-miterlimit="10" cx="155.999" cy="144.012" rx="34.249" ry="39.077"/>
	
		<ellipse fill="#ED1F24" stroke="#000000" stroke-width="12" stroke-miterlimit="10" cx="137.317" cy="218.936" rx="34.249" ry="39.078"/>
	
		<ellipse fill="#ED1F24" stroke="#000000" stroke-width="12" stroke-miterlimit="10" cx="132.222" cy="255.201" rx="34.249" ry="39.078"/>
	
		<ellipse fill="#ED1F24" stroke="#000000" stroke-width="12" stroke-miterlimit="10" cx="166.471" cy="218.936" rx="34.249" ry="39.078"/>
	
		<ellipse fill="#ED1F24" stroke="#000000" stroke-width="12" stroke-miterlimit="10" cx="182.322" cy="179.857" rx="34.249" ry="39.078"/>
	<path fill="#ED1F24" stroke="#000000" stroke-width="12" stroke-miterlimit="10" d="M230.157,120.435
		c0,21.581-15.334,39.078-34.249,39.078c-18.915,0-34.249-17.498-34.249-39.078c0-21.582,17.203-12.237,36.117-12.237
		C216.692,108.198,230.157,98.853,230.157,120.435z"/>
	<path fill="#ED1F24" stroke="#000000" stroke-width="12" stroke-miterlimit="10" d="M245.329,156.64
		c0,21.581-1.918,35.814-20.833,35.814c-18.915,0-34.249-17.498-34.249-39.078c0-21.582,15.334-39.077,34.249-39.077
		C243.411,114.299,245.329,135.058,245.329,156.64z"/>
	<path fill="#ED1F24" stroke="#000000" stroke-width="12" stroke-miterlimit="10" d="M271.222,108.198
		c0,21.58-15.333,39.078-34.249,39.078c-18.915,0-20.833-20.761-20.833-42.341c0-21.582,1.918-35.814,20.833-35.814
		C255.889,69.12,271.222,86.616,271.222,108.198z"/>
	<path fill="#ED1F24" stroke="#000000" stroke-width="12" stroke-miterlimit="10" d="M255.803,170.204
		c0,21.581-1.918,35.814-20.834,35.814c-18.915,0-34.249-17.497-34.249-39.078c0-21.582,15.334-39.077,34.249-39.077
		C253.885,127.863,255.803,148.622,255.803,170.204z"/>
	
		<ellipse fill="#ED1F24" stroke="#000000" stroke-width="12" stroke-miterlimit="10" cx="211.194" cy="206.016" rx="34.249" ry="39.078"/>
	<path fill="#EAE71C" stroke="#000000" stroke-width="12" stroke-miterlimit="10" d="M295.997,111.751
		c0,21.581-15.334,39.078-34.25,39.078c-18.915,0-20.833-20.761-20.833-42.342c0-21.582,1.918-35.813,20.833-35.813
		C280.663,72.674,295.997,90.169,295.997,111.751z"/>
	<path fill="#EAE71C" stroke="#000000" stroke-width="12" stroke-miterlimit="10" d="M266.275,159.547
		c0,21.581-1.918,35.814-20.834,35.814c-18.915,0-34.249-17.498-34.249-39.078c0-21.582,15.334-39.077,34.249-39.077
		C264.357,117.207,266.275,137.965,266.275,159.547z"/>
	<path fill="#EAE71C" stroke="#000000" stroke-width="12" stroke-miterlimit="10" d="M300.524,178.924
		c0,21.581-15.333,39.078-34.25,39.078c-18.915,0-20.833-20.761-20.833-42.342c0-21.582,1.918-35.813,20.833-35.813
		C285.191,139.847,300.524,157.342,300.524,178.924z"/>
	
		<ellipse fill="#EAE71C" stroke="#000000" stroke-width="12" stroke-miterlimit="10" cx="314.393" cy="111.751" rx="34.249" ry="39.078"/>
	
		<ellipse fill="#EAE71C" stroke="#000000" stroke-width="12" stroke-miterlimit="10" cx="295.996" cy="147.275" rx="34.249" ry="39.078"/>
	
		<ellipse fill="#EAE71C" stroke="#000000" stroke-width="12" stroke-miterlimit="10" cx="314.393" cy="159.547" rx="34.249" ry="39.078"/>
	
		<ellipse fill="#EAE71C" stroke="#000000" stroke-width="12" stroke-miterlimit="10" cx="300.524" cy="198.625" rx="34.25" ry="39.078"/>
	
		<ellipse fill="#EAE71C" stroke="#000000" stroke-width="12" stroke-miterlimit="10" cx="300.525" cy="234.795" rx="34.25" ry="39.076"/>
	<path fill="#EAE71C" stroke="#000000" stroke-width="12" stroke-miterlimit="10" d="M295.997,234.795
		c0,21.581-15.334,39.076-34.25,39.076c-18.915,0-20.833-20.759-20.833-42.339c0-21.582,1.918-35.813,20.833-35.813
		C280.663,195.718,295.997,213.213,295.997,234.795z"/>
	<path fill="#EAE71C" stroke="#000000" stroke-width="12" stroke-miterlimit="10" d="M271.223,222.199
		c0,21.581-15.334,39.076-34.25,39.076c-18.915,0-20.833-20.759-20.833-42.34c0-21.582,1.918-35.814,20.833-35.814
		C255.889,183.122,271.223,200.618,271.223,222.199z"/>
	<path fill="#EAE71C" stroke="#000000" stroke-width="12" stroke-miterlimit="10" d="M245.33,251.91
		c0,21.58-1.917,35.814-20.834,35.814c-18.915,0-34.249-17.498-34.249-39.078c0-21.582,15.334-39.078,34.249-39.078
		C243.412,209.569,245.33,230.329,245.33,251.91z"/>
	<path fill="#EAE71C" stroke="#000000" stroke-width="12" stroke-miterlimit="10" d="M255.803,284.203
		c0,21.582-1.918,35.814-20.834,35.814c-18.915,0-34.249-17.496-34.249-39.078c0-21.58,15.334-39.076,34.249-39.076
		C253.885,241.864,255.803,262.623,255.803,284.203z"/>
	<path fill="#EAE71C" stroke="#000000" stroke-width="12" stroke-miterlimit="10" d="M285.24,265.473
		c0,21.58-15.333,39.076-34.25,39.076c-18.915,0-20.833-20.76-20.833-42.34c0-21.581,1.918-35.813,20.833-35.813
		C269.907,226.396,285.24,243.892,285.24,265.473z"/>
	<path fill="#EAE71C" stroke="#000000" stroke-width="12" stroke-miterlimit="10" d="M295.997,297.543
		c0,21.582-15.334,39.078-34.25,39.078c-18.915,0-20.833-20.76-20.833-42.342c0-21.58,1.918-35.812,20.833-35.812
		C280.663,258.467,295.997,275.963,295.997,297.543z"/>
	
		<ellipse fill="#EAE71C" stroke="#000000" stroke-width="12" stroke-miterlimit="10" cx="290.052" cy="273.873" rx="34.249" ry="39.076"/>
	
		<ellipse fill="#EAE71C" stroke="#000000" stroke-width="12" stroke-miterlimit="10" cx="300.524" cy="287.434" rx="34.25" ry="39.078"/>
	
		<ellipse fill="#414EA1" stroke="#000000" stroke-width="12" stroke-miterlimit="10" cx="356" cy="134.356" rx="34.25" ry="39.078"/>
	
		<ellipse fill="#414EA1" stroke="#000000" stroke-width="12" stroke-miterlimit="10" cx="334.774" cy="180.311" rx="34.25" ry="39.077"/>
	
		<ellipse fill="#414EA1" stroke="#000000" stroke-width="12" stroke-miterlimit="10" cx="396.479" cy="159.547" rx="34.25" ry="39.078"/>
	
		<ellipse fill="#414EA1" stroke="#000000" stroke-width="12" stroke-miterlimit="10" cx="380.063" cy="198.625" rx="34.25" ry="39.077"/>
	
		<ellipse fill="#414EA1" stroke="#000000" stroke-width="12" stroke-miterlimit="10" cx="411.198" cy="209.279" rx="34.25" ry="39.077"/>
	
		<ellipse fill="#414EA1" stroke="#000000" stroke-width="12" stroke-miterlimit="10" cx="407.801" cy="234.796" rx="34.25" ry="39.079"/>
	
		<ellipse fill="#414EA1" stroke="#000000" stroke-width="12" stroke-miterlimit="10" cx="373.551" cy="234.796" rx="34.25" ry="39.079"/>
	
		<ellipse fill="#414EA1" stroke="#000000" stroke-width="12" stroke-miterlimit="10" cx="339.302" cy="237.702" rx="34.25" ry="39.078"/>
	
		<ellipse fill="#414EA1" stroke="#000000" stroke-width="12" stroke-miterlimit="10" cx="327.98" cy="268.379" rx="34.25" ry="39.08"/>
	
		<ellipse fill="#414EA1" stroke="#000000" stroke-width="12" stroke-miterlimit="10" cx="356" cy="287.434" rx="34.25" ry="39.078"/>
	
		<ellipse fill="#414EA1" stroke="#000000" stroke-width="12" stroke-miterlimit="10" cx="390.25" cy="276.777" rx="34.25" ry="39.078"/>
	<path fill="#414EA1" stroke="#000000" stroke-width="12" stroke-miterlimit="10" d="M430.729,307.455
		c0,21.582-15.334,39.08-34.25,39.08c-18.915,0-34.249-17.498-34.249-39.08c0-21.58,15.334-39.076,34.249-39.076
		C415.395,268.379,430.729,285.875,430.729,307.455z"/>
	
		<ellipse fill="#414EA1" stroke="#000000" stroke-width="12" stroke-miterlimit="10" cx="373.551" cy="315.854" rx="34.25" ry="39.078"/>
	
		<ellipse fill="#414EA1" stroke="#000000" stroke-width="12" stroke-miterlimit="10" cx="348.642" cy="320.375" rx="34.25" ry="39.078"/>
	<path fill="#414EA1" stroke="#000000" stroke-width="12" stroke-miterlimit="10" d="M364.495,307.455
		c0,21.582-15.333,39.08-34.25,39.08c-18.914,0-34.248-17.498-34.248-39.08c0-21.58,15.334-39.076,34.248-39.076
		C349.162,268.379,364.495,285.875,364.495,307.455z"/>
	
		<ellipse fill="#ED1F24" stroke="#000000" stroke-width="12" stroke-miterlimit="10" cx="190.247" cy="253.814" rx="34.249" ry="39.078"/>
	
		<ellipse fill="#ED1F24" stroke="#000000" stroke-width="12" stroke-miterlimit="10" cx="195.908" cy="297.09" rx="34.249" ry="39.078"/>
	
		<ellipse fill="#ED1F24" stroke="#000000" stroke-width="12" stroke-miterlimit="10" cx="166.471" cy="284.17" rx="34.249" ry="39.078"/>
	
		<ellipse fill="#ED1F24" stroke="#000000" stroke-width="12" stroke-miterlimit="10" cx="121.75" cy="304.193" rx="34.249" ry="39.078"/>
	
		<ellipse fill="#ED1F24" stroke="#000000" stroke-width="12" stroke-miterlimit="10" cx="118.92" cy="245.093" rx="34.249" ry="39.077"/>
	<path fill="#58B947" stroke="#000000" stroke-width="12" stroke-miterlimit="10" d="M458.748,296.154
		c0,21.582-15.333,39.08-34.25,39.08c-18.914,0-34.249-17.498-34.249-39.08c0-21.58,15.335-39.076,34.249-39.076
		C443.415,257.078,458.748,274.574,458.748,296.154z"/>
	<path fill="#58B947" stroke="#000000" stroke-width="12" stroke-miterlimit="10" d="M468.372,251.908
		c0,21.582-15.333,39.08-34.25,39.08c-18.914,0-34.249-17.498-34.249-39.08c0-21.58,15.335-39.076,34.249-39.076
		C453.039,212.832,468.372,230.329,468.372,251.908z"/>
	<path fill="#58B947" stroke="#000000" stroke-width="12" stroke-miterlimit="10" d="M458.749,219.387
		c0,21.582-15.333,39.08-34.25,39.08c-18.914,0-34.249-17.498-34.249-39.08c0-21.58,15.335-39.076,34.249-39.076
		C443.416,180.311,458.749,197.807,458.749,219.387z"/>
	<path fill="#58B947" stroke="#000000" stroke-width="12" stroke-miterlimit="10" d="M455.919,183.12
		c0,21.582-15.334,39.08-34.25,39.08c-18.915,0-34.249-17.498-34.249-39.08c0-21.58,15.334-39.076,34.249-39.076
		C440.585,144.043,455.919,161.54,455.919,183.12z"/>
	<path fill="#58B947" stroke="#000000" stroke-width="12" stroke-miterlimit="10" d="M437.522,335.232
		c0,21.582-15.334,39.08-34.25,39.08c-18.915,0-34.249-17.498-34.249-39.08c0-21.58,15.334-39.076,34.249-39.076
		C422.188,296.156,437.522,313.652,437.522,335.232z"/>
	
		<ellipse fill="#58B947" stroke="#000000" stroke-width="12" stroke-miterlimit="10" cx="376.949" cy="332.65" rx="34.25" ry="39.078"/>
	
		<ellipse fill="#58B947" stroke="#000000" stroke-width="12" stroke-miterlimit="10" cx="339.302" cy="330.066" rx="34.25" ry="39.078"/>
	<path fill="#58B947" stroke="#000000" stroke-width="12" stroke-miterlimit="10" d="M350.908,310.043
		c0,21.582-15.333,39.08-34.25,39.08c-18.914,0-34.249-17.498-34.249-39.08c0-21.58,15.335-39.078,34.249-39.078
		C335.575,270.965,350.908,288.463,350.908,310.043z"/>
	<path fill="#914A9C" stroke="#000000" stroke-width="12" stroke-miterlimit="10" d="M137.318,216.124
		c0,21.582-15.333,39.08-34.25,39.08c-18.915,0-34.249-17.498-34.249-39.08c0-21.58,15.334-39.077,34.249-39.077
		C121.984,177.046,137.318,194.543,137.318,216.124z"/>
	<path fill="#914A9C" stroke="#000000" stroke-width="12" stroke-miterlimit="10" d="M113.542,262.209
		c0,21.582-15.333,39.08-34.25,39.08c-18.915,0-34.249-17.498-34.249-39.08c0-21.58,15.334-39.077,34.249-39.077
		C98.209,223.132,113.542,240.629,113.542,262.209z"/>
	<path fill="#914A9C" stroke="#000000" stroke-width="12" stroke-miterlimit="10" d="M132.223,290.309
		c0,21.582-15.333,39.08-34.25,39.08c-18.915,0-34.249-17.498-34.249-39.08c0-21.58,15.334-39.078,34.249-39.078
		C116.89,251.23,132.223,268.729,132.223,290.309z"/>
	<path fill="#914A9C" stroke="#000000" stroke-width="12" stroke-miterlimit="10" d="M121.75,309.686
		c0,21.584-15.333,39.08-34.25,39.08c-18.915,0-34.249-17.496-34.249-39.08c0-21.578,15.334-39.076,34.249-39.076
		C106.417,270.609,121.75,288.107,121.75,309.686z"/>
	
		<ellipse fill="#914A9C" stroke="#000000" stroke-width="12" stroke-miterlimit="10" cx="105.616" cy="329.387" rx="34.249" ry="39.078"/>
	<path fill="#914A9C" stroke="#000000" stroke-width="12" stroke-miterlimit="10" d="M156,320.018
		c0,21.582-15.333,39.08-34.25,39.08c-18.915,0-34.249-17.498-34.249-39.08c0-21.58,15.334-39.078,34.249-39.078
		C140.666,280.939,156,298.438,156,320.018z"/>
	<path fill="#914A9C" stroke="#000000" stroke-width="12" stroke-miterlimit="10" d="M182.323,323.246
		c0,21.582-15.333,39.08-34.25,39.08c-18.915,0-34.249-17.498-34.249-39.08c0-21.58,15.334-39.076,34.249-39.076
		C166.99,284.17,182.323,301.666,182.323,323.246z"/>
	
		<ellipse fill="#914A9C" stroke="#000000" stroke-width="12" stroke-miterlimit="10" cx="137.317" cy="336.168" rx="34.25" ry="39.078"/>
	<path fill="#914A9C" stroke="#000000" stroke-width="12" stroke-miterlimit="10" d="M221.667,309.686
		c0,21.584-15.333,39.08-34.25,39.08c-18.915,0-34.249-17.496-34.249-39.08c0-21.578,15.334-39.076,34.249-39.076
		C206.334,270.609,221.667,288.107,221.667,309.686z"/>
	<path fill="#DC8627" stroke="#000000" stroke-width="12" stroke-miterlimit="10" d="M253.539,310.043
		c0,21.582-1.918,35.816-20.834,35.816c-18.915,0-34.249-17.498-34.249-39.08c0-21.58,15.334-39.078,34.249-39.078
		C251.621,267.701,253.539,288.463,253.539,310.043z"/>
	<path fill="#DC8627" stroke="#000000" stroke-width="12" stroke-miterlimit="10" d="M295.997,315.854
		c0,21.582-15.334,39.078-34.25,39.078c-18.915,0-20.833-20.76-20.833-42.342c0-21.58,1.918-35.814,20.833-35.814
		C280.663,276.775,295.997,294.273,295.997,315.854z"/>
	<path fill="#DC8627" stroke="#000000" stroke-width="12" stroke-miterlimit="10" d="M324.301,323.281
		c0,21.582-15.333,39.08-34.25,39.08c-18.915,0-34.248-17.498-34.248-39.08c0-21.58,15.333-39.078,34.248-39.078
		C308.968,284.203,324.301,301.701,324.301,323.281z"/>
	<path fill="#DC8627" stroke="#000000" stroke-width="12" stroke-miterlimit="10" d="M271.223,335.232
		c0,21.582-15.334,39.08-34.25,39.08c-18.915,0-20.833-20.762-20.833-42.344c0-21.58,1.918-35.812,20.833-35.812
		C255.889,296.156,271.223,313.652,271.223,335.232z"/>
	<path fill="#DC8627" stroke="#000000" stroke-width="12" stroke-miterlimit="10" d="M245.443,320.018
		c0,21.582-15.333,39.08-34.25,39.08c-18.915,0-34.249-17.498-34.249-39.08c0-21.58,15.334-39.078,34.249-39.078
		C230.11,280.939,245.443,298.438,245.443,320.018z"/>
	<path fill="#DC8627" stroke="#000000" stroke-width="12" stroke-miterlimit="10" d="M240.065,331.969
		c0,21.582-15.333,39.08-34.25,39.08c-18.915,0-34.249-17.498-34.249-39.08c0-21.58,15.334-39.076,34.249-39.076
		C224.731,292.893,240.065,310.389,240.065,331.969z"/>
</g>
<g id="Layer_2">
	<path fill="#58B947" d="M458.748,296.154c0,21.582-15.333,39.08-34.25,39.08c-18.914,0-34.249-17.498-34.249-39.08
		c0-21.58,15.335-39.076,34.249-39.076C443.415,257.078,458.748,274.574,458.748,296.154z"/>
	<path fill="#58B947" d="M468.372,251.908c0,21.582-15.333,39.08-34.25,39.08c-18.914,0-34.249-17.498-34.249-39.08
		c0-21.58,15.335-39.076,34.249-39.076C453.039,212.832,468.372,230.329,468.372,251.908z"/>
	<path fill="#58B947" d="M458.749,219.387c0,21.582-15.333,39.08-34.25,39.08c-18.914,0-34.249-17.498-34.249-39.08
		c0-21.58,15.335-39.076,34.249-39.076C443.416,180.311,458.749,197.807,458.749,219.387z"/>
	<path fill="#58B947" d="M455.919,183.12c0,21.582-15.334,39.08-34.25,39.08c-18.915,0-34.249-17.498-34.249-39.08
		c0-21.58,15.334-39.076,34.249-39.076C440.585,144.043,455.919,161.54,455.919,183.12z"/>
	<path fill="#58B947" d="M437.522,335.232c0,21.582-15.334,39.08-34.25,39.08c-18.915,0-34.249-17.498-34.249-39.08
		c0-21.58,15.334-39.076,34.249-39.076C422.188,296.156,437.522,313.652,437.522,335.232z"/>
	<ellipse fill="#58B947" cx="376.949" cy="332.65" rx="34.25" ry="39.078"/>
	<ellipse fill="#58B947" cx="339.302" cy="330.066" rx="34.25" ry="39.078"/>
	<path fill="#58B947" d="M350.908,310.043c0,21.582-15.333,39.08-34.25,39.08c-18.914,0-34.249-17.498-34.249-39.08
		c0-21.58,15.335-39.078,34.249-39.078C335.575,270.965,350.908,288.463,350.908,310.043z"/>
	<path fill="#914A9C" d="M137.318,216.124c0,21.582-15.333,39.08-34.25,39.08c-18.915,0-34.249-17.498-34.249-39.08
		c0-21.58,15.334-39.077,34.249-39.077C121.984,177.046,137.318,194.543,137.318,216.124z"/>
	<path fill="#914A9C" d="M113.542,262.209c0,21.582-15.333,39.08-34.25,39.08c-18.915,0-34.249-17.498-34.249-39.08
		c0-21.58,15.334-39.077,34.249-39.077C98.209,223.132,113.542,240.629,113.542,262.209z"/>
	<path fill="#914A9C" d="M132.223,290.309c0,21.582-15.333,39.08-34.25,39.08c-18.915,0-34.249-17.498-34.249-39.08
		c0-21.58,15.334-39.078,34.249-39.078C116.89,251.23,132.223,268.729,132.223,290.309z"/>
	<path fill="#914A9C" d="M121.75,309.686c0,21.584-15.333,39.08-34.25,39.08c-18.915,0-34.249-17.496-34.249-39.08
		c0-21.578,15.334-39.076,34.249-39.076C106.417,270.609,121.75,288.107,121.75,309.686z"/>
	<ellipse fill="#914A9C" cx="105.616" cy="329.387" rx="34.249" ry="39.078"/>
	<path fill="#914A9C" d="M156,320.018c0,21.582-15.333,39.08-34.25,39.08c-18.915,0-34.249-17.498-34.249-39.08
		c0-21.58,15.334-39.078,34.249-39.078C140.666,280.939,156,298.438,156,320.018z"/>
	<path fill="#914A9C" d="M182.323,323.246c0,21.582-15.333,39.08-34.25,39.08c-18.915,0-34.249-17.498-34.249-39.08
		c0-21.58,15.334-39.076,34.249-39.076C166.99,284.17,182.323,301.666,182.323,323.246z"/>
	<ellipse fill="#914A9C" cx="137.317" cy="336.168" rx="34.25" ry="39.078"/>
	<path fill="#914A9C" d="M221.667,309.686c0,21.584-15.333,39.08-34.25,39.08c-18.915,0-34.249-17.496-34.249-39.08
		c0-21.578,15.334-39.076,34.249-39.076C206.334,270.609,221.667,288.107,221.667,309.686z"/>
	<path fill="#DC8627" d="M253.539,310.043c0,21.582-1.918,35.816-20.834,35.816c-18.915,0-34.249-17.498-34.249-39.08
		c0-21.58,15.334-39.078,34.249-39.078C251.621,267.701,253.539,288.463,253.539,310.043z"/>
	<path fill="#DC8627" d="M295.997,315.854c0,21.582-15.334,39.078-34.25,39.078c-18.915,0-20.833-20.76-20.833-42.342
		c0-21.58,1.918-35.814,20.833-35.814C280.663,276.775,295.997,294.273,295.997,315.854z"/>
	<path fill="#DC8627" d="M324.301,323.281c0,21.582-15.333,39.08-34.25,39.08c-18.915,0-34.248-17.498-34.248-39.08
		c0-21.58,15.333-39.078,34.248-39.078C308.968,284.203,324.301,301.701,324.301,323.281z"/>
	<path fill="#DC8627" d="M271.223,335.232c0,21.582-15.334,39.08-34.25,39.08c-18.915,0-20.833-20.762-20.833-42.344
		c0-21.58,1.918-35.812,20.833-35.812C255.889,296.156,271.223,313.652,271.223,335.232z"/>
	<path fill="#DC8627" d="M245.443,320.018c0,21.582-15.333,39.08-34.25,39.08c-18.915,0-34.249-17.498-34.249-39.08
		c0-21.58,15.334-39.078,34.249-39.078C230.11,280.939,245.443,298.438,245.443,320.018z"/>
	<path fill="#DC8627" d="M240.065,331.969c0,21.582-15.333,39.08-34.25,39.08c-18.915,0-34.249-17.498-34.249-39.08
		c0-21.58,15.334-39.076,34.249-39.076C224.731,292.893,240.065,310.389,240.065,331.969z"/>
</g>
<g id="Layer_4">
	
		<ellipse fill="#ED1F24" stroke="#000000" stroke-width="11" stroke-miterlimit="10" cx="118.806" cy="178.924" rx="34.249" ry="39.077"/>
	
		<ellipse fill="#ED1F24" stroke="#000000" stroke-width="11" stroke-miterlimit="10" cx="142.583" cy="147.275" rx="34.249" ry="39.077"/>
	
		<ellipse fill="#ED1F24" stroke="#000000" stroke-width="11" stroke-miterlimit="10" cx="123.901" cy="222.2" rx="34.249" ry="39.078"/>
	
		<ellipse fill="#ED1F24" stroke="#000000" stroke-width="11" stroke-miterlimit="10" cx="118.806" cy="258.465" rx="34.249" ry="39.078"/>
	
		<ellipse fill="#ED1F24" stroke="#000000" stroke-width="11" stroke-miterlimit="10" cx="153.055" cy="222.199" rx="34.249" ry="39.078"/>
	
		<ellipse fill="#ED1F24" stroke="#000000" stroke-width="11" stroke-miterlimit="10" cx="168.906" cy="183.121" rx="34.249" ry="39.078"/>
	
		<ellipse fill="#ED1F24" stroke="#000000" stroke-width="11" stroke-miterlimit="10" cx="182.492" cy="123.699" rx="34.249" ry="39.078"/>
	
		<ellipse fill="#ED1F24" stroke="#000000" stroke-width="11" stroke-miterlimit="10" cx="211.08" cy="156.64" rx="34.249" ry="39.078"/>
	
		<ellipse fill="#ED1F24" stroke="#000000" stroke-width="11" stroke-miterlimit="10" cx="236.973" cy="108.198" rx="34.249" ry="39.078"/>
	
		<ellipse fill="#ED1F24" stroke="#000000" stroke-width="11" stroke-miterlimit="10" cx="221.553" cy="170.204" rx="34.249" ry="39.078"/>
	
		<ellipse fill="#ED1F24" stroke="#000000" stroke-width="11" stroke-miterlimit="10" cx="197.778" cy="209.279" rx="34.249" ry="39.078"/>
	
		<ellipse fill="#EAE71C" stroke="#000000" stroke-width="11" stroke-miterlimit="10" cx="261.748" cy="111.751" rx="34.25" ry="39.078"/>
	
		<ellipse fill="#EAE71C" stroke="#000000" stroke-width="11" stroke-miterlimit="10" cx="232.026" cy="159.547" rx="34.249" ry="39.078"/>
	
		<ellipse fill="#EAE71C" stroke="#000000" stroke-width="11" stroke-miterlimit="10" cx="266.275" cy="178.924" rx="34.249" ry="39.078"/>
	
		<ellipse fill="#EAE71C" stroke="#000000" stroke-width="11" stroke-miterlimit="10" cx="314.393" cy="111.751" rx="34.249" ry="39.078"/>
	
		<ellipse fill="#EAE71C" stroke="#000000" stroke-width="11" stroke-miterlimit="10" cx="295.996" cy="147.275" rx="34.249" ry="39.078"/>
	
		<ellipse fill="#EAE71C" stroke="#000000" stroke-width="11" stroke-miterlimit="10" cx="314.393" cy="159.547" rx="34.249" ry="39.078"/>
	
		<ellipse fill="#EAE71C" stroke="#000000" stroke-width="11" stroke-miterlimit="10" cx="300.524" cy="198.625" rx="34.25" ry="39.078"/>
	
		<ellipse fill="#EAE71C" stroke="#000000" stroke-width="11" stroke-miterlimit="10" cx="300.525" cy="234.795" rx="34.25" ry="39.076"/>
	
		<ellipse fill="#EAE71C" stroke="#000000" stroke-width="11" stroke-miterlimit="10" cx="261.747" cy="234.795" rx="34.25" ry="39.076"/>
	
		<ellipse fill="#EAE71C" stroke="#000000" stroke-width="11" stroke-miterlimit="10" cx="236.973" cy="222.199" rx="34.25" ry="39.076"/>
	
		<ellipse fill="#EAE71C" stroke="#000000" stroke-width="11" stroke-miterlimit="10" cx="211.08" cy="251.91" rx="34.25" ry="39.078"/>
	
		<ellipse fill="#EAE71C" stroke="#000000" stroke-width="11" stroke-miterlimit="10" cx="221.553" cy="284.203" rx="34.25" ry="39.078"/>
	
		<ellipse fill="#EAE71C" stroke="#000000" stroke-width="11" stroke-miterlimit="10" cx="250.991" cy="265.473" rx="34.25" ry="39.076"/>
	
		<ellipse fill="#EAE71C" stroke="#000000" stroke-width="11" stroke-miterlimit="10" cx="261.747" cy="297.543" rx="34.25" ry="39.078"/>
	
		<ellipse fill="#EAE71C" stroke="#000000" stroke-width="11" stroke-miterlimit="10" cx="290.052" cy="273.873" rx="34.249" ry="39.076"/>
	
		<ellipse fill="#EAE71C" stroke="#000000" stroke-width="11" stroke-miterlimit="10" cx="300.524" cy="287.434" rx="34.25" ry="39.078"/>
	
		<ellipse fill="#414EA1" stroke="#000000" stroke-width="11" stroke-miterlimit="10" cx="356" cy="134.356" rx="34.25" ry="39.078"/>
	
		<ellipse fill="#414EA1" stroke="#000000" stroke-width="11" stroke-miterlimit="10" cx="334.774" cy="180.311" rx="34.25" ry="39.077"/>
	
		<ellipse fill="#414EA1" stroke="#000000" stroke-width="11" stroke-miterlimit="10" cx="396.479" cy="159.547" rx="34.25" ry="39.078"/>
	
		<ellipse fill="#414EA1" stroke="#000000" stroke-width="11" stroke-miterlimit="10" cx="380.063" cy="198.625" rx="34.25" ry="39.077"/>
	
		<ellipse fill="#414EA1" stroke="#000000" stroke-width="11" stroke-miterlimit="10" cx="411.198" cy="209.279" rx="34.25" ry="39.077"/>
	
		<ellipse fill="#414EA1" stroke="#000000" stroke-width="11" stroke-miterlimit="10" cx="407.801" cy="234.796" rx="34.25" ry="39.079"/>
	
		<ellipse fill="#414EA1" stroke="#000000" stroke-width="11" stroke-miterlimit="10" cx="373.551" cy="234.796" rx="34.25" ry="39.079"/>
	
		<ellipse fill="#414EA1" stroke="#000000" stroke-width="11" stroke-miterlimit="10" cx="339.302" cy="237.702" rx="34.25" ry="39.078"/>
	
		<ellipse fill="#414EA1" stroke="#000000" stroke-width="11" stroke-miterlimit="10" cx="327.98" cy="268.379" rx="34.25" ry="39.08"/>
	
		<ellipse fill="#414EA1" stroke="#000000" stroke-width="11" stroke-miterlimit="10" cx="356" cy="287.434" rx="34.25" ry="39.078"/>
	
		<ellipse fill="#414EA1" stroke="#000000" stroke-width="11" stroke-miterlimit="10" cx="390.25" cy="276.777" rx="34.25" ry="39.078"/>
	<path fill="#414EA1" stroke="#000000" stroke-width="11" stroke-miterlimit="10" d="M430.729,307.455
		c0,21.582-15.334,39.08-34.25,39.08c-18.915,0-34.249-17.498-34.249-39.08c0-21.58,15.334-39.076,34.249-39.076
		C415.395,268.379,430.729,285.875,430.729,307.455z"/>
	
		<ellipse fill="#414EA1" stroke="#000000" stroke-width="11" stroke-miterlimit="10" cx="373.551" cy="315.854" rx="34.25" ry="39.078"/>
	
		<ellipse fill="#414EA1" stroke="#000000" stroke-width="11" stroke-miterlimit="10" cx="348.642" cy="320.375" rx="34.25" ry="39.078"/>
	<path fill="#414EA1" stroke="#000000" stroke-width="11" stroke-miterlimit="10" d="M364.495,307.455
		c0,21.582-15.333,39.08-34.25,39.08c-18.914,0-34.248-17.498-34.248-39.08c0-21.58,15.334-39.076,34.248-39.076
		C349.162,268.379,364.495,285.875,364.495,307.455z"/>
	
		<ellipse fill="#ED1F24" stroke="#000000" stroke-width="11" stroke-miterlimit="10" cx="176.831" cy="257.078" rx="34.249" ry="39.078"/>
	
		<ellipse fill="#ED1F24" stroke="#000000" stroke-width="11" stroke-miterlimit="10" cx="182.492" cy="300.354" rx="34.249" ry="39.078"/>
	
		<ellipse fill="#ED1F24" stroke="#000000" stroke-width="11" stroke-miterlimit="10" cx="153.055" cy="287.434" rx="34.249" ry="39.078"/>
	
		<ellipse fill="#ED1F24" stroke="#000000" stroke-width="11" stroke-miterlimit="10" cx="108.334" cy="307.457" rx="34.249" ry="39.078"/>
	
		<ellipse fill="#ED1F24" stroke="#000000" stroke-width="11" stroke-miterlimit="10" cx="105.504" cy="248.356" rx="34.249" ry="39.077"/>
</g>
<g id="Layer_1">
	<ellipse fill="#ED1F24" cx="118.806" cy="178.924" rx="34.249" ry="39.077"/>
	<ellipse fill="#ED1F24" cx="142.583" cy="147.275" rx="34.249" ry="39.077"/>
	<ellipse fill="#ED1F24" cx="123.901" cy="222.2" rx="34.249" ry="39.078"/>
	<ellipse fill="#ED1F24" cx="118.806" cy="258.465" rx="34.249" ry="39.078"/>
	<ellipse fill="#ED1F24" cx="153.055" cy="222.199" rx="34.249" ry="39.078"/>
	<ellipse fill="#ED1F24" cx="168.906" cy="183.121" rx="34.249" ry="39.078"/>
	<ellipse fill="#ED1F24" cx="182.492" cy="123.699" rx="34.249" ry="39.078"/>
	<ellipse fill="#ED1F24" cx="211.08" cy="156.64" rx="34.249" ry="39.078"/>
	<ellipse fill="#ED1F24" cx="236.973" cy="108.198" rx="34.249" ry="39.078"/>
	<ellipse fill="#ED1F24" cx="221.553" cy="170.204" rx="34.249" ry="39.078"/>
	<ellipse fill="#ED1F24" cx="197.778" cy="209.279" rx="34.249" ry="39.078"/>
	<ellipse fill="#EAE71C" cx="261.748" cy="111.751" rx="34.25" ry="39.078"/>
	<ellipse fill="#EAE71C" cx="232.026" cy="159.547" rx="34.249" ry="39.078"/>
	<ellipse fill="#EAE71C" cx="266.275" cy="178.924" rx="34.249" ry="39.078"/>
	<ellipse fill="#EAE71C" cx="314.393" cy="111.751" rx="34.249" ry="39.078"/>
	<ellipse fill="#EAE71C" cx="295.996" cy="147.275" rx="34.249" ry="39.078"/>
	<ellipse fill="#EAE71C" cx="314.393" cy="159.547" rx="34.249" ry="39.078"/>
	<ellipse fill="#EAE71C" cx="300.524" cy="198.625" rx="34.25" ry="39.078"/>
	<ellipse fill="#EAE71C" cx="300.525" cy="234.795" rx="34.25" ry="39.076"/>
	<ellipse fill="#EAE71C" cx="261.747" cy="234.795" rx="34.25" ry="39.076"/>
	<ellipse fill="#EAE71C" cx="236.973" cy="222.199" rx="34.25" ry="39.076"/>
	<ellipse fill="#EAE71C" cx="250.991" cy="265.473" rx="34.25" ry="39.076"/>
	<ellipse fill="#EAE71C" cx="261.747" cy="297.543" rx="34.25" ry="39.078"/>
	<ellipse fill="#EAE71C" cx="290.052" cy="273.873" rx="34.249" ry="39.076"/>
	<ellipse fill="#EAE71C" cx="300.524" cy="287.434" rx="34.25" ry="39.078"/>
	<ellipse fill="#414EA1" cx="356" cy="134.356" rx="34.25" ry="39.078"/>
	<ellipse fill="#414EA1" cx="334.774" cy="180.311" rx="34.25" ry="39.077"/>
	<ellipse fill="#414EA1" cx="396.479" cy="159.547" rx="34.25" ry="39.078"/>
	<ellipse fill="#414EA1" cx="380.063" cy="198.625" rx="34.25" ry="39.077"/>
	<ellipse fill="#414EA1" cx="411.198" cy="209.279" rx="34.25" ry="39.077"/>
	<ellipse fill="#414EA1" cx="407.801" cy="234.796" rx="34.25" ry="39.079"/>
	<ellipse fill="#414EA1" cx="373.551" cy="234.796" rx="34.25" ry="39.079"/>
	<ellipse fill="#414EA1" cx="339.302" cy="237.702" rx="34.25" ry="39.078"/>
	<ellipse fill="#414EA1" cx="327.98" cy="268.379" rx="34.25" ry="39.08"/>
	<ellipse fill="#414EA1" cx="356" cy="287.434" rx="34.25" ry="39.078"/>
	<ellipse fill="#414EA1" cx="390.25" cy="276.777" rx="34.25" ry="39.078"/>
	<path fill="#414EA1" d="M430.729,307.455c0,21.582-15.334,39.08-34.25,39.08c-18.915,0-34.249-17.498-34.249-39.08
		c0-21.58,15.334-39.076,34.249-39.076C415.395,268.379,430.729,285.875,430.729,307.455z"/>
	<ellipse fill="#414EA1" cx="373.551" cy="315.854" rx="34.25" ry="39.078"/>
	<ellipse fill="#414EA1" cx="348.642" cy="320.375" rx="34.25" ry="39.078"/>
	<path fill="#414EA1" d="M364.495,307.455c0,21.582-15.333,39.08-34.25,39.08c-18.914,0-34.248-17.498-34.248-39.08
		c0-21.58,15.334-39.076,34.248-39.076C349.162,268.379,364.495,285.875,364.495,307.455z"/>
	<ellipse fill="#ED1F24" cx="176.831" cy="257.078" rx="34.249" ry="39.078"/>
	<ellipse fill="#ED1F24" cx="182.492" cy="300.354" rx="34.249" ry="39.078"/>
	<ellipse fill="#ED1F24" cx="153.055" cy="287.434" rx="34.249" ry="39.078"/>
	<ellipse fill="#ED1F24" cx="108.334" cy="307.457" rx="34.249" ry="39.078"/>
	<ellipse fill="#ED1F24" cx="105.504" cy="248.356" rx="34.249" ry="39.077"/>
	<ellipse fill="#EAE71C" cx="211.08" cy="251.91" rx="34.25" ry="39.078"/>
	<ellipse fill="#EAE71C" cx="221.553" cy="284.203" rx="34.25" ry="39.078"/>
</g>
</svg>
