<?xml version="1.0" encoding="utf-8"?>
<!-- Generator: Adobe Illustrator 16.0.0, SVG Export Plug-In . SVG Version: 6.00 Build 0)  -->
<!DOCTYPE svg PUBLIC "-//W3C//DTD SVG 1.1//EN" "http://www.w3.org/Graphics/SVG/1.1/DTD/svg11.dtd">
<svg version="1.1" xmlns="http://www.w3.org/2000/svg" xmlns:xlink="http://www.w3.org/1999/xlink" x="0px" y="0px" width="500px"
	 height="500px" viewBox="0 0 500 500" enable-background="new 0 0 500 500" xml:space="preserve">
<g id="Layer_1">
	<path fill="#7FA088" stroke="#000000" stroke-width="9" stroke-miterlimit="10" d="M77.989,432.232
		C138.454,249.068,268.487,22.628,275.64,21.978c12.064-1.098,134.012,416.668,135.885,425.859
		C338.705,477.095,185.916,499.199,77.989,432.232z"/>
</g>
<g id="Layer_2">
	<path fill="#FFFFFF" stroke="#000000" stroke-width="7" stroke-miterlimit="10" d="M109.043,348.299
		c0,0,110.036-33.097,222.513-168.981c0,0,22.756,75.382,30.556,98.138c-105.975,155.39-257.783,169.012-257.783,169.012
		l-26.34-14.234L109.043,348.299z"/>
</g>
<g id="Layer_3">
	<g>
		<path fill="#46AEE3" stroke="#000000" stroke-width="5" stroke-miterlimit="10" d="M163.527,367.89
			c0.027,10.446-2.082,20.907-6.684,31.316c-5.487,12.396-13.207,20.569-23.198,24.288c-3.58,1.334-6.699,1.758-9.318,1.295
			c-1.483,1.92-2.931,3.123-4.332,3.606c-0.841,0.293-1.817,0.196-2.921-0.29c-1.32-3.271-1.877-8.021-1.652-14.238
			c0.195-5.348,0.667-13.426,1.546-24.212c0.879-10.786,1.578-18.841,1.962-24.173c0.01-0.133-0.007-0.354-0.047-0.662
			c-0.041-0.309-0.054-0.564-0.039-0.765c0.088-1.199,0.585-2.32,1.484-3.365c0.899-1.043,1.93-1.786,3.094-2.226
			c1.611-0.608,2.999-0.56,4.177,0.151c1.175,0.715,1.556,1.926,1.139,3.646c3.588-6.258,8.33-10.581,14.184-13.061
			c7.1-3.011,12.299-2.577,15.936,1.435C161.947,354.231,163.505,359.968,163.527,367.89z M154.2,371.658
			c0.118-13.587-3.322-18.675-10.842-15.494c-3.081,1.297-6.224,4.22-9.471,8.767c-2.841,3.997-4.884,7.89-6.066,11.702
			c-1.186,3.815-1.876,7.779-2.049,11.909c-0.299,7.157-0.541,14.321-0.726,21.49c-0.17,6.264,2.524,8.441,7.932,6.425
			c4.855-1.813,9.228-5.947,13.085-12.372c3.193-5.423,5.335-11.027,6.51-16.782C153.617,382.134,154.147,376.917,154.2,371.658z"/>
		<path fill="#46AEE3" stroke="#000000" stroke-width="5" stroke-miterlimit="10" d="M208.534,349.636
			c0.392,5.503,0.261,11.671-0.436,18.497c-0.819,8.419-2.373,14.78-4.717,19.065c-2.897,5.337-6.749,9.226-11.54,11.607
			c-4.29,2.132-8.175,2.594-11.567,1.408c-3.732-1.368-6.37-4.394-7.871-9.036c-1.072-3.284-1.681-8.06-1.806-14.317
			c-0.061-3.059,0.043-7.756,0.339-14.086c0.296-6.327,0.455-11.021,0.445-14.082c-0.001-0.531-0.185-1.223-0.545-2.079
			c-0.359-0.854-0.539-1.549-0.538-2.082c0.002-1.66,1.207-3.604,3.566-5.848c1.829-1.779,3.611-3.12,5.359-4.022
			c1.978-1.021,2.967-0.842,2.989,0.554c0.01,0.731-0.265,1.944-0.829,3.642c-0.564,1.7-0.843,2.948-0.83,3.746
			c0.042,2.657-0.184,6.83-0.661,12.517c-0.481,5.688-0.676,9.896-0.598,12.62c0.119,4.125,0.255,8.249,0.407,12.374
			c0.138,3.792,0.962,6.824,2.481,9.081c1.867,2.904,4.468,3.559,7.72,1.938c6.266-3.12,9.887-11.384,11.037-24.662
			c0.523-6.192,0.375-15.297-0.246-27.312c-0.227-4.382-0.958-7.607-2.196-9.691c-0.371-0.605-0.564-1.139-0.583-1.604
			c-0.048-1.193,0.287-2.57,0.994-4.131c0.707-1.56,1.555-2.63,2.547-3.211c1.047-0.611,2.18-0.801,3.404-0.575
			c1.224,0.229,1.87,0.938,1.936,2.132C207.298,331.263,207.879,340.449,208.534,349.636z"/>
		<path fill="#46AEE3" stroke="#000000" stroke-width="5" stroke-miterlimit="10" d="M252.452,289.816
			c0.104,0.727,0.022,1.811-0.251,3.262c-0.323,1.855-0.513,2.984-0.562,3.386c-0.558,7.063-0.592,12.5-0.034,16.315
			c1.299,9.496,2.661,18.987,4.082,28.476c0.406,2.929,0.352,6.261-0.197,9.993c-0.747,4.745-2.156,7.809-4.213,9.176
			c-3.057,2.031-6.594,0.995-10.43-3.129c-2.781-3.082-5.78-7.882-8.88-14.402c-1.849-4.347-3.678-8.685-5.481-13.011
			c-0.038,11.972,0.165,19.876,0.577,23.713c0.908,8.467,1.92,13.058,2.962,13.77c1.041,0.715,1.601,1.366,1.673,1.962
			c0.151,1.254-0.291,2.716-1.342,4.373c-1.05,1.659-2.167,2.834-3.343,3.53c-1.649,0.971-3.233-0.188-4.705-3.479
			c-1.146-2.562-1.834-5.106-2.084-7.622c-0.112-1.127-0.248-2.815-0.404-5.069c-0.158-2.25-0.286-3.939-0.393-5.066
			c-0.255-2.714-0.341-6.927-0.256-12.629c0.084-5.706,0.018-9.914-0.208-12.629c-0.336-4.04-0.658-8.079-0.965-12.12
			c-0.009-0.132-0.065-0.306-0.166-0.521c-0.1-0.212-0.155-0.386-0.166-0.518c-0.1-1.323,0.546-2.874,1.908-4.651
			c1.108-1.477,2.235-2.592,3.387-3.347c2.667-1.751,4.643-1.929,5.991-0.514c0.382,0.519,0.812,1.847,1.303,3.983
			c0.314,1.484,0.635,2.998,0.962,4.543c1.12,4.271,3.566,10.703,7.608,19.237c4.827,10.024,8.276,14.442,9.905,13.342
			c0.602-0.402,0.763-1.526,0.49-3.371c-0.077-0.525-0.272-1.334-0.58-2.431c-0.308-1.092-0.508-1.968-0.603-2.628
			c-1.018-9.105-1.988-18.214-2.911-27.324c-0.376-4.127-0.352-8.465,0.041-13.007c0.589-6.419,1.933-10.425,4.042-12.043
			c0.672-0.517,1.684-0.642,3.045-0.383C252.349,289.277,252.415,289.555,252.452,289.816z"/>
		<path fill="#46AEE3" stroke="#000000" stroke-width="5" stroke-miterlimit="10" d="M301.543,304.809
			c0.317,1.228,0.474,2.921,0.46,5.079c-0.062,5.301-1.413,10.616-4.168,15.912c-2.527,4.791-5.708,8.709-9.514,11.729
			c-6.244,4.951-11.865,5.632-16.458,2.11c-3.983-3.089-6.683-8.853-8.132-17.245c-1.203-6.95-1.461-14.106-0.9-21.458
			c0.61-8.358,2.253-15.871,4.799-22.567c2.023-5.268,4.271-9.048,6.816-11.351c3.661-3.318,6.843-3.459,9.771-0.405
			c2.384,2.468,4.285,6.644,5.671,12.55c0.624,2.662,0.958,6.427,0.965,11.302c0.042,5.945-0.674,9.545-2.111,10.795
			c-1.621,1.411-3.187,1.041-4.648-1.105c0.365-0.854,0.854-2.161,1.447-3.924c0.604-2.229,0.424-5.427-0.5-9.589
			c-0.893-4.035-1.929-7.19-3.098-9.477c-1.787-3.436-3.643-4.253-5.664-2.451c-1.407,1.255-2.69,3.961-3.899,8.116
			c-0.929,3.154-1.636,6.358-2.105,9.619c-1.118,8.172-0.914,16.94,0.853,26.296c2.52,13.604,8.005,17.388,15.837,11.129
			c3.344-2.69,5.658-6.079,6.95-10.135c0.508-1.753,1.086-5.017,1.688-9.783c0.371-3.384,1.1-5.567,2.2-6.553
			c0.735-0.657,1.477-0.83,2.232-0.517C300.79,303.198,301.293,303.839,301.543,304.809z"/>
		<path fill="#46AEE3" stroke="#000000" stroke-width="5" stroke-miterlimit="10" d="M338.759,278.67
			c0.386,1.074,0.591,2.18,0.604,3.312c0.026,1.474-0.27,2.547-0.879,3.211c-0.163,0.18-0.416,0.388-0.755,0.626
			c-0.339,0.236-0.594,0.444-0.758,0.622c-1.765,1.905-4.044,5.481-6.998,10.702c-2.96,5.222-5.482,8.751-7.407,10.607
			c-7.282,6.951-13.353,2.472-17.523-13.268c-3.327-12.382-5.66-22.41-7.124-30.059c-0.211-1.009-0.321-1.547-0.341-1.612
			c-0.115-0.451-0.326-1.073-0.632-1.864c-0.308-0.79-0.506-1.38-0.605-1.769c-0.759-2.974-0.198-5.739,1.613-8.308
			c2.763-4.065,5.413-8.187,7.943-12.363c3.328-5.431,5.734-9.223,7.446-11.338c0.989-1.225,1.95-1.987,2.896-2.286
			c1.3-0.383,2.216,0.217,2.75,1.807c0.794,2.353,0.368,4.582-1.331,6.67c-0.207,0.257-0.546,0.604-1.014,1.039
			c-0.47,0.438-0.809,0.781-1.019,1.036c-2.854,3.44-6.447,9.262-11.208,17.402c-0.294,0.398-0.559,0.808-0.793,1.225
			c-0.237,0.421-0.3,1.111-0.186,2.071c0.424,3.549,1.863,9.835,4.396,18.841c0.378,1.352,0.967,1.629,1.757,0.83
			c1.076-1.093,2.507-3.09,4.231-6.003c1.726-2.91,3.07-4.924,4.089-6.035c1.134-1.239,2.614-2.098,4.45-2.589
			c1.05,1.608,1.653,2.634,1.8,3.078c0.525,1.593,0.518,2.778-0.03,3.554c-0.546,0.777-1.136,1.595-1.771,2.455
			c-0.421,0.026-0.909,0.339-1.468,0.939c-1.4,1.506-3.003,3.592-4.849,6.255c-1.516,2.323-3.091,4.63-4.729,6.915
			c-0.234,0.319-0.441,0.604-0.615,0.857c-0.175,0.256-0.203,0.776-0.086,1.567c0.24,1.242,0.464,2.217,0.666,2.924
			c1.414,4.95,2.334,7.839,2.745,8.674c1.514,3.301,3.302,3.992,5.288,2.062c1.673-1.63,3.884-4.77,6.499-9.438
			c2.61-4.667,4.729-7.953,6.475-9.843C335.045,278.19,337.162,277.35,338.759,278.67z"/>
	</g>
</g>
<g id="Layer_4">
	<g>
		<path fill="#0D4356" d="M163.527,367.89c0.027,10.446-2.082,20.907-6.684,31.316c-5.487,12.396-13.207,20.569-23.198,24.288
			c-3.58,1.334-6.699,1.758-9.318,1.295c-1.483,1.92-2.931,3.123-4.332,3.606c-0.841,0.293-1.817,0.196-2.921-0.29
			c-1.32-3.271-1.877-8.021-1.652-14.238c0.195-5.348,0.667-13.426,1.546-24.212c0.879-10.786,1.578-18.841,1.962-24.173
			c0.01-0.133-0.007-0.354-0.047-0.662c-0.041-0.309-0.054-0.564-0.039-0.765c0.088-1.199,0.585-2.32,1.484-3.365
			c0.899-1.043,1.93-1.786,3.094-2.226c1.611-0.608,2.999-0.56,4.177,0.151c1.175,0.715,1.556,1.926,1.139,3.646
			c3.588-6.258,8.33-10.581,14.184-13.061c7.1-3.011,12.299-2.577,15.936,1.435C161.947,354.231,163.505,359.968,163.527,367.89z
			 M154.2,371.658c0.118-13.587-3.322-18.675-10.842-15.494c-3.081,1.297-6.224,4.22-9.471,8.767
			c-2.841,3.997-4.884,7.89-6.066,11.702c-1.186,3.815-1.876,7.779-2.049,11.909c-0.299,7.157-0.541,14.321-0.726,21.49
			c-0.17,6.264,2.524,8.441,7.932,6.425c4.855-1.813,9.228-5.947,13.085-12.372c3.193-5.423,5.335-11.027,6.51-16.782
			C153.617,382.134,154.147,376.917,154.2,371.658z"/>
		<path fill="#0D4356" d="M208.534,349.636c0.392,5.503,0.261,11.671-0.436,18.497c-0.819,8.419-2.373,14.78-4.717,19.065
			c-2.897,5.337-6.749,9.226-11.54,11.607c-4.29,2.132-8.175,2.594-11.567,1.408c-3.732-1.368-6.37-4.394-7.871-9.036
			c-1.072-3.284-1.681-8.06-1.806-14.317c-0.061-3.059,0.043-7.756,0.339-14.086c0.296-6.327,0.455-11.021,0.445-14.082
			c-0.001-0.531-0.185-1.223-0.545-2.079c-0.359-0.854-0.539-1.549-0.538-2.082c0.002-1.66,1.207-3.604,3.566-5.848
			c1.829-1.779,3.611-3.12,5.359-4.022c1.978-1.021,2.967-0.842,2.989,0.554c0.01,0.731-0.265,1.944-0.829,3.642
			c-0.564,1.7-0.843,2.948-0.83,3.746c0.042,2.657-0.184,6.83-0.661,12.517c-0.481,5.688-0.676,9.896-0.598,12.62
			c0.119,4.125,0.255,8.249,0.407,12.374c0.138,3.792,0.962,6.824,2.481,9.081c1.867,2.904,4.468,3.559,7.72,1.938
			c6.266-3.12,9.887-11.384,11.037-24.662c0.523-6.192,0.375-15.297-0.246-27.312c-0.227-4.382-0.958-7.607-2.196-9.691
			c-0.371-0.605-0.564-1.139-0.583-1.604c-0.048-1.193,0.287-2.57,0.994-4.131c0.707-1.56,1.555-2.63,2.547-3.211
			c1.047-0.611,2.18-0.801,3.404-0.575c1.224,0.229,1.87,0.938,1.936,2.132C207.298,331.263,207.879,340.449,208.534,349.636z"/>
		<path fill="#0D4356" d="M252.452,289.816c0.104,0.727,0.022,1.811-0.251,3.262c-0.323,1.855-0.513,2.984-0.562,3.386
			c-0.558,7.063-0.592,12.5-0.034,16.315c1.299,9.496,2.661,18.987,4.082,28.476c0.406,2.929,0.352,6.261-0.197,9.993
			c-0.747,4.745-2.156,7.809-4.213,9.176c-3.057,2.031-6.594,0.995-10.43-3.129c-2.781-3.082-5.78-7.882-8.88-14.402
			c-1.849-4.347-3.678-8.685-5.481-13.011c-0.038,11.972,0.165,19.876,0.577,23.713c0.908,8.467,1.92,13.058,2.962,13.77
			c1.041,0.715,1.601,1.366,1.673,1.962c0.151,1.254-0.291,2.716-1.342,4.373c-1.05,1.659-2.167,2.834-3.343,3.53
			c-1.649,0.971-3.233-0.188-4.705-3.479c-1.146-2.562-1.834-5.106-2.084-7.622c-0.112-1.127-0.248-2.815-0.404-5.069
			c-0.158-2.25-0.286-3.939-0.393-5.066c-0.255-2.714-0.341-6.927-0.256-12.629c0.084-5.706,0.018-9.914-0.208-12.629
			c-0.336-4.04-0.658-8.079-0.965-12.12c-0.009-0.132-0.065-0.306-0.166-0.521c-0.1-0.212-0.155-0.386-0.166-0.518
			c-0.1-1.323,0.546-2.874,1.908-4.651c1.108-1.477,2.235-2.592,3.387-3.347c2.667-1.751,4.643-1.929,5.991-0.514
			c0.382,0.519,0.812,1.847,1.303,3.983c0.314,1.484,0.635,2.998,0.962,4.543c1.12,4.271,3.566,10.703,7.608,19.237
			c4.827,10.024,8.276,14.442,9.905,13.342c0.602-0.402,0.763-1.526,0.49-3.371c-0.077-0.525-0.272-1.334-0.58-2.431
			c-0.308-1.092-0.508-1.968-0.603-2.628c-1.018-9.105-1.988-18.214-2.911-27.324c-0.376-4.127-0.352-8.465,0.041-13.007
			c0.589-6.419,1.933-10.425,4.042-12.043c0.672-0.517,1.684-0.642,3.045-0.383C252.349,289.277,252.415,289.555,252.452,289.816z"
			/>
		<path fill="#0D4356" d="M301.543,304.809c0.317,1.228,0.474,2.921,0.46,5.079c-0.062,5.301-1.413,10.616-4.168,15.912
			c-2.527,4.791-5.708,8.709-9.514,11.729c-6.244,4.951-11.865,5.632-16.458,2.11c-3.983-3.089-6.683-8.853-8.132-17.245
			c-1.203-6.95-1.461-14.106-0.9-21.458c0.61-8.358,2.253-15.871,4.799-22.567c2.023-5.268,4.271-9.048,6.816-11.351
			c3.661-3.318,6.843-3.459,9.771-0.405c2.384,2.468,4.285,6.644,5.671,12.55c0.624,2.662,0.958,6.427,0.965,11.302
			c0.042,5.945-0.674,9.545-2.111,10.795c-1.621,1.411-3.187,1.041-4.648-1.105c0.365-0.854,0.854-2.161,1.447-3.924
			c0.604-2.229,0.424-5.427-0.5-9.589c-0.893-4.035-1.929-7.19-3.098-9.477c-1.787-3.436-3.643-4.253-5.664-2.451
			c-1.407,1.255-2.69,3.961-3.899,8.116c-0.929,3.154-1.636,6.358-2.105,9.619c-1.118,8.172-0.914,16.94,0.853,26.296
			c2.52,13.604,8.005,17.388,15.837,11.129c3.344-2.69,5.658-6.079,6.95-10.135c0.508-1.753,1.086-5.017,1.688-9.783
			c0.371-3.384,1.1-5.567,2.2-6.553c0.735-0.657,1.477-0.83,2.232-0.517C300.79,303.198,301.293,303.839,301.543,304.809z"/>
		<path fill="#0D4356" d="M338.759,278.67c0.386,1.074,0.591,2.18,0.604,3.312c0.026,1.474-0.27,2.547-0.879,3.211
			c-0.163,0.18-0.416,0.388-0.755,0.626c-0.339,0.236-0.594,0.444-0.758,0.622c-1.765,1.905-4.044,5.481-6.998,10.702
			c-2.96,5.222-5.482,8.751-7.407,10.607c-7.282,6.951-13.353,2.472-17.523-13.268c-3.327-12.382-5.66-22.41-7.124-30.059
			c-0.211-1.009-0.321-1.547-0.341-1.612c-0.115-0.451-0.326-1.073-0.632-1.864c-0.308-0.79-0.506-1.38-0.605-1.769
			c-0.759-2.974-0.198-5.739,1.613-8.308c2.763-4.065,5.413-8.187,7.943-12.363c3.328-5.431,5.734-9.223,7.446-11.338
			c0.989-1.225,1.95-1.987,2.896-2.286c1.3-0.383,2.216,0.217,2.75,1.807c0.794,2.353,0.368,4.582-1.331,6.67
			c-0.207,0.257-0.546,0.604-1.014,1.039c-0.47,0.438-0.809,0.781-1.019,1.036c-2.854,3.44-6.447,9.262-11.208,17.402
			c-0.294,0.398-0.559,0.808-0.793,1.225c-0.237,0.421-0.3,1.111-0.186,2.071c0.424,3.549,1.863,9.835,4.396,18.841
			c0.378,1.352,0.967,1.629,1.757,0.83c1.076-1.093,2.507-3.09,4.231-6.003c1.726-2.91,3.07-4.924,4.089-6.035
			c1.134-1.239,2.614-2.098,4.45-2.589c1.05,1.608,1.653,2.634,1.8,3.078c0.525,1.593,0.518,2.778-0.03,3.554
			c-0.546,0.777-1.136,1.595-1.771,2.455c-0.421,0.026-0.909,0.339-1.468,0.939c-1.4,1.506-3.003,3.592-4.849,6.255
			c-1.516,2.323-3.091,4.63-4.729,6.915c-0.234,0.319-0.441,0.604-0.615,0.857c-0.175,0.256-0.203,0.776-0.086,1.567
			c0.24,1.242,0.464,2.217,0.666,2.924c1.414,4.95,2.334,7.839,2.745,8.674c1.514,3.301,3.302,3.992,5.288,2.062
			c1.673-1.63,3.884-4.77,6.499-9.438c2.61-4.667,4.729-7.953,6.475-9.843C335.045,278.19,337.162,277.35,338.759,278.67z"/>
	</g>
</g>
<g id="Layer_5">
	<path opacity="0.1" d="M286.445,43.639c-28.484,47.854-100.761,356.778-47.553,432.329c5.252,7.865-75.365-9.361-75.365-9.361
		l-45.93-14.373l-39.609-17.602l6.957-33.78l56.996-129.005l40.276-88.348l46.391-84.657c0,0,19.528-34.637,20.788-36.792
		c1.259-2.155,22.392-35.887,22.392-35.887l7.584-4.187l6.365,19.176"/>
</g>
</svg>
